<svg width="196" height="41" viewBox="0 0 196 41" fill="none" xmlns="http://www.w3.org/2000/svg">
<path d="M29.5871 23V5.54545H33.2775V19.9574H40.7604V23H29.5871ZM46.8691 23.2472C46.0338 23.2472 45.2895 23.1023 44.6361 22.8125C43.9827 22.517 43.4657 22.0824 43.085 21.5085C42.71 20.929 42.5225 20.2074 42.5225 19.3438C42.5225 18.6165 42.656 18.0057 42.9231 17.5114C43.1901 17.017 43.5537 16.6193 44.014 16.3182C44.4742 16.017 44.9969 15.7898 45.5821 15.6364C46.1731 15.483 46.7924 15.375 47.4401 15.3125C48.2015 15.233 48.8151 15.1591 49.281 15.0909C49.7469 15.017 50.085 14.9091 50.2952 14.767C50.5054 14.625 50.6106 14.4148 50.6106 14.1364V14.0852C50.6106 13.5455 50.4401 13.1278 50.0992 12.8324C49.764 12.5369 49.2867 12.3892 48.6674 12.3892C48.014 12.3892 47.4941 12.5341 47.1077 12.8239C46.7213 13.108 46.4657 13.4659 46.3407 13.8977L42.9827 13.625C43.1532 12.8295 43.4884 12.142 43.9884 11.5625C44.4884 10.9773 45.1333 10.5284 45.9231 10.2159C46.7185 9.89773 47.639 9.73864 48.6844 9.73864C49.4117 9.73864 50.1077 9.82386 50.7725 9.99432C51.4429 10.1648 52.0367 10.429 52.5537 10.7869C53.0765 11.1449 53.4884 11.6051 53.7895 12.1676C54.0907 12.7244 54.2412 13.392 54.2412 14.1705V23H50.7981V21.1847H50.6958C50.4856 21.5938 50.2043 21.9545 49.852 22.267C49.4998 22.5739 49.0765 22.8153 48.5821 22.9915C48.0878 23.1619 47.5168 23.2472 46.8691 23.2472ZM47.9088 20.7415C48.4429 20.7415 48.9145 20.6364 49.3236 20.4261C49.7327 20.2102 50.0537 19.9205 50.2867 19.5568C50.5196 19.1932 50.6361 18.7812 50.6361 18.321V16.9318C50.5225 17.0057 50.3662 17.0739 50.1674 17.1364C49.9742 17.1932 49.7554 17.2472 49.5111 17.2983C49.2668 17.3437 49.0225 17.3864 48.7782 17.4261C48.5338 17.4602 48.3123 17.4915 48.1134 17.5199C47.6873 17.5824 47.3151 17.6818 46.9969 17.8182C46.6787 17.9545 46.4316 18.1392 46.2554 18.3722C46.0793 18.5994 45.9912 18.8835 45.9912 19.2244C45.9912 19.7188 46.1702 20.0966 46.5282 20.358C46.8918 20.6136 47.352 20.7415 47.9088 20.7415ZM65.4529 17.4261V9.90909H69.0836V23H65.5978V20.6222H65.4614C65.1659 21.3892 64.6745 22.0057 63.987 22.4716C63.3052 22.9375 62.4728 23.1705 61.4898 23.1705C60.6148 23.1705 59.8449 22.9716 59.1802 22.5739C58.5154 22.1761 57.9955 21.6108 57.6205 20.8778C57.2512 20.1449 57.0637 19.267 57.058 18.2443V9.90909H60.6887V17.5966C60.6944 18.3693 60.9017 18.9801 61.3108 19.429C61.7199 19.8778 62.2682 20.1023 62.9557 20.1023C63.3932 20.1023 63.8023 20.0028 64.183 19.804C64.5637 19.5994 64.8705 19.2983 65.1034 18.9006C65.3421 18.5028 65.4586 18.0114 65.4529 17.4261ZM75.6184 15.4318V23H71.9877V9.90909H75.4479V12.2188H75.6013C75.8911 11.4574 76.3769 10.8551 77.0587 10.4119C77.7405 9.96307 78.5672 9.73864 79.5388 9.73864C80.4479 9.73864 81.2405 9.9375 81.9167 10.3352C82.5928 10.733 83.1184 11.3011 83.4934 12.0398C83.8684 12.7727 84.0559 13.6477 84.0559 14.6648V23H80.4252V15.3125C80.4309 14.5114 80.2263 13.8864 79.8115 13.4375C79.3968 12.983 78.8258 12.7557 78.0985 12.7557C77.6098 12.7557 77.178 12.8608 76.803 13.071C76.4337 13.2812 76.1439 13.5881 75.9337 13.9915C75.7292 14.3892 75.624 14.8693 75.6184 15.4318ZM92.8321 23.2557C91.4912 23.2557 90.3378 22.9716 89.3719 22.4034C88.4117 21.8295 87.6731 21.0341 87.156 20.017C86.6446 19 86.389 17.8295 86.389 16.5057C86.389 15.1648 86.6475 13.9886 87.1645 12.9773C87.6873 11.9602 88.4287 11.1676 89.389 10.5994C90.3492 10.0256 91.4912 9.73864 92.8151 9.73864C93.9571 9.73864 94.9571 9.94602 95.8151 10.3608C96.6731 10.7756 97.352 11.358 97.852 12.108C98.352 12.858 98.6276 13.7386 98.6787 14.75H95.2526C95.156 14.0966 94.9003 13.571 94.4856 13.1733C94.0765 12.7699 93.5395 12.5682 92.8748 12.5682C92.3123 12.5682 91.8208 12.7216 91.4003 13.0284C90.9856 13.3295 90.6617 13.7699 90.4287 14.3494C90.1958 14.929 90.0793 15.6307 90.0793 16.4545C90.0793 17.2898 90.1929 18 90.4202 18.5852C90.6532 19.1705 90.9799 19.6165 91.4003 19.9233C91.8208 20.2301 92.3123 20.3835 92.8748 20.3835C93.2895 20.3835 93.6617 20.2983 93.9912 20.1278C94.3265 19.9574 94.602 19.7102 94.8179 19.3864C95.0395 19.0568 95.1844 18.6619 95.2526 18.2017H98.6787C98.6219 19.2017 98.3492 20.0824 97.8606 20.8438C97.3776 21.5994 96.71 22.1903 95.8577 22.6165C95.0054 23.0426 93.9969 23.2557 92.8321 23.2557ZM104.634 15.4318V23H101.003V5.54545H104.532V12.2188H104.685C104.981 11.446 105.458 10.8409 106.117 10.4034C106.776 9.96023 107.603 9.73864 108.597 9.73864C109.506 9.73864 110.299 9.9375 110.975 10.3352C111.657 10.7273 112.185 11.2926 112.56 12.0312C112.941 12.7642 113.128 13.642 113.123 14.6648V23H109.492V15.3125C109.498 14.5057 109.293 13.8778 108.878 13.429C108.469 12.9801 107.895 12.7557 107.157 12.7557C106.662 12.7557 106.225 12.8608 105.844 13.071C105.469 13.2812 105.174 13.5881 104.958 13.9915C104.748 14.3892 104.64 14.8693 104.634 15.4318ZM121.946 23.2557C120.599 23.2557 119.44 22.983 118.469 22.4375C117.503 21.8864 116.758 21.108 116.236 20.1023C115.713 19.0909 115.451 17.8949 115.451 16.5142C115.451 15.1676 115.713 13.9858 116.236 12.9688C116.758 11.9517 117.494 11.1591 118.443 10.5909C119.397 10.0227 120.517 9.73864 121.801 9.73864C122.665 9.73864 123.469 9.87784 124.213 10.1562C124.963 10.429 125.616 10.8409 126.173 11.392C126.736 11.9432 127.173 12.6364 127.486 13.4716C127.798 14.3011 127.954 15.2727 127.954 16.3864V17.3835H116.9V15.1335H124.537C124.537 14.6108 124.423 14.1477 124.196 13.7443C123.969 13.3409 123.653 13.0256 123.25 12.7983C122.852 12.5653 122.389 12.4489 121.861 12.4489C121.309 12.4489 120.821 12.5767 120.395 12.8324C119.974 13.0824 119.645 13.4205 119.406 13.8466C119.167 14.267 119.045 14.7358 119.04 15.2528V17.392C119.04 18.0398 119.159 18.5994 119.397 19.071C119.642 19.5426 119.986 19.9062 120.429 20.1619C120.872 20.4176 121.397 20.5455 122.005 20.5455C122.409 20.5455 122.778 20.4886 123.113 20.375C123.449 20.2614 123.736 20.0909 123.974 19.8636C124.213 19.6364 124.395 19.358 124.52 19.0284L127.878 19.25C127.707 20.0568 127.358 20.7614 126.829 21.3636C126.307 21.9602 125.63 22.4261 124.801 22.7614C123.977 23.0909 123.025 23.2557 121.946 23.2557ZM130.324 23V9.90909H133.844V12.1932H133.98C134.219 11.3807 134.619 10.767 135.182 10.3523C135.744 9.93182 136.392 9.72159 137.125 9.72159C137.307 9.72159 137.503 9.73295 137.713 9.75568C137.923 9.77841 138.108 9.80966 138.267 9.84943V13.071C138.096 13.0199 137.861 12.9744 137.559 12.9347C137.258 12.8949 136.983 12.875 136.733 12.875C136.199 12.875 135.721 12.9915 135.301 13.2244C134.886 13.4517 134.557 13.7699 134.312 14.179C134.074 14.5881 133.954 15.0597 133.954 15.5938V23H130.324Z" fill="white"/>
<path d="M140.212 23V5.54545H143.902V19.9574H151.385V23H140.212ZM157.494 23.2472C156.659 23.2472 155.915 23.1023 155.261 22.8125C154.608 22.517 154.091 22.0824 153.71 21.5085C153.335 20.929 153.147 20.2074 153.147 19.3438C153.147 18.6165 153.281 18.0057 153.548 17.5114C153.815 17.017 154.179 16.6193 154.639 16.3182C155.099 16.017 155.622 15.7898 156.207 15.6364C156.798 15.483 157.417 15.375 158.065 15.3125C158.826 15.233 159.44 15.1591 159.906 15.0909C160.372 15.017 160.71 14.9091 160.92 14.767C161.13 14.625 161.236 14.4148 161.236 14.1364V14.0852C161.236 13.5455 161.065 13.1278 160.724 12.8324C160.389 12.5369 159.912 12.3892 159.292 12.3892C158.639 12.3892 158.119 12.5341 157.733 12.8239C157.346 13.108 157.091 13.4659 156.966 13.8977L153.608 13.625C153.778 12.8295 154.113 12.142 154.613 11.5625C155.113 10.9773 155.758 10.5284 156.548 10.2159C157.344 9.89773 158.264 9.73864 159.309 9.73864C160.037 9.73864 160.733 9.82386 161.397 9.99432C162.068 10.1648 162.662 10.429 163.179 10.7869C163.701 11.1449 164.113 11.6051 164.415 12.1676C164.716 12.7244 164.866 13.392 164.866 14.1705V23H161.423V21.1847H161.321C161.111 21.5938 160.829 21.9545 160.477 22.267C160.125 22.5739 159.701 22.8153 159.207 22.9915C158.713 23.1619 158.142 23.2472 157.494 23.2472ZM158.534 20.7415C159.068 20.7415 159.54 20.6364 159.949 20.4261C160.358 20.2102 160.679 19.9205 160.912 19.5568C161.145 19.1932 161.261 18.7812 161.261 18.321V16.9318C161.147 17.0057 160.991 17.0739 160.792 17.1364C160.599 17.1932 160.38 17.2472 160.136 17.2983C159.892 17.3437 159.647 17.3864 159.403 17.4261C159.159 17.4602 158.937 17.4915 158.738 17.5199C158.312 17.5824 157.94 17.6818 157.622 17.8182C157.304 17.9545 157.057 18.1392 156.88 18.3722C156.704 18.5994 156.616 18.8835 156.616 19.2244C156.616 19.7188 156.795 20.0966 157.153 20.358C157.517 20.6136 157.977 20.7415 158.534 20.7415ZM167.751 23V5.54545H171.382V12.108H171.493C171.652 11.7557 171.882 11.3977 172.183 11.0341C172.49 10.6648 172.888 10.358 173.376 10.1136C173.87 9.86364 174.484 9.73864 175.217 9.73864C176.172 9.73864 177.052 9.98864 177.859 10.4886C178.666 10.983 179.311 11.7301 179.794 12.7301C180.277 13.7244 180.518 14.9716 180.518 16.4716C180.518 17.9318 180.282 19.1648 179.811 20.1705C179.345 21.1705 178.709 21.929 177.902 22.446C177.101 22.9574 176.203 23.2131 175.209 23.2131C174.504 23.2131 173.905 23.0966 173.41 22.8636C172.922 22.6307 172.521 22.3381 172.209 21.9858C171.896 21.6278 171.657 21.267 171.493 20.9034H171.331V23H167.751ZM171.305 16.4545C171.305 17.233 171.413 17.9119 171.629 18.4915C171.845 19.071 172.157 19.5227 172.567 19.8466C172.976 20.1648 173.473 20.3239 174.058 20.3239C174.649 20.3239 175.149 20.1619 175.558 19.8381C175.967 19.5085 176.277 19.054 176.487 18.4744C176.703 17.8892 176.811 17.2159 176.811 16.4545C176.811 15.6989 176.706 15.0341 176.495 14.4602C176.285 13.8864 175.976 13.4375 175.567 13.1136C175.157 12.7898 174.655 12.6278 174.058 12.6278C173.467 12.6278 172.967 12.7841 172.558 13.0966C172.155 13.4091 171.845 13.8523 171.629 14.4261C171.413 15 171.305 15.6761 171.305 16.4545ZM193.833 13.642L190.509 13.8466C190.452 13.5625 190.33 13.3068 190.143 13.0795C189.955 12.8466 189.708 12.6619 189.401 12.5256C189.1 12.3835 188.739 12.3125 188.319 12.3125C187.756 12.3125 187.282 12.4318 186.895 12.6705C186.509 12.9034 186.316 13.2159 186.316 13.608C186.316 13.9205 186.441 14.1847 186.691 14.4006C186.941 14.6165 187.37 14.7898 187.978 14.9205L190.347 15.3977C191.62 15.6591 192.569 16.0795 193.194 16.6591C193.819 17.2386 194.131 18 194.131 18.9432C194.131 19.8011 193.878 20.554 193.373 21.2017C192.873 21.8494 192.185 22.3551 191.31 22.7188C190.441 23.0767 189.438 23.2557 188.302 23.2557C186.569 23.2557 185.188 22.8949 184.16 22.1733C183.137 21.446 182.537 20.4574 182.361 19.2074L185.932 19.0199C186.04 19.5483 186.302 19.9517 186.716 20.2301C187.131 20.5028 187.662 20.6392 188.31 20.6392C188.946 20.6392 189.458 20.517 189.844 20.2727C190.236 20.0227 190.435 19.7017 190.441 19.3097C190.435 18.9801 190.296 18.7102 190.023 18.5C189.75 18.2841 189.33 18.1193 188.762 18.0057L186.495 17.554C185.216 17.2983 184.265 16.8551 183.64 16.2244C183.02 15.5937 182.711 14.7898 182.711 13.8125C182.711 12.9716 182.938 12.2472 183.393 11.6392C183.853 11.0312 184.498 10.5625 185.327 10.233C186.162 9.90341 187.14 9.73864 188.259 9.73864C189.912 9.73864 191.214 10.0881 192.162 10.7869C193.117 11.4858 193.674 12.4375 193.833 13.642Z" fill="url(#paint0_linear_20_186)"/>
<path d="M30.0289 38V29.2727H31.303V32.5156H31.3797C31.4536 32.3793 31.5601 32.2216 31.6993 32.0426C31.8385 31.8636 32.0317 31.7074 32.2789 31.5739C32.526 31.4375 32.8527 31.3693 33.259 31.3693C33.7874 31.3693 34.259 31.5028 34.6738 31.7699C35.0885 32.0369 35.4138 32.4219 35.6496 32.9247C35.8883 33.4276 36.0076 34.0327 36.0076 34.7401C36.0076 35.4474 35.8897 36.054 35.6539 36.5597C35.4181 37.0625 35.0942 37.4503 34.6823 37.723C34.2704 37.9929 33.8002 38.1278 33.2718 38.1278C32.874 38.1278 32.5488 38.0611 32.2959 37.9276C32.0459 37.794 31.8499 37.6378 31.7079 37.4588C31.5658 37.2798 31.4564 37.1207 31.3797 36.9815H31.2732V38H30.0289ZM31.2775 34.7273C31.2775 35.1875 31.3442 35.5909 31.4777 35.9375C31.6113 36.2841 31.8044 36.5554 32.0573 36.7514C32.3101 36.9446 32.6198 37.0412 32.9863 37.0412C33.3669 37.0412 33.6851 36.9403 33.9408 36.7386C34.1965 36.5341 34.3897 36.2571 34.5204 35.9077C34.6539 35.5582 34.7206 35.1648 34.7206 34.7273C34.7206 34.2955 34.6553 33.9077 34.5246 33.5639C34.3968 33.2202 34.2036 32.9489 33.9451 32.75C33.6894 32.5511 33.3698 32.4517 32.9863 32.4517C32.6169 32.4517 32.3044 32.5469 32.0488 32.7372C31.7959 32.9276 31.6042 33.1932 31.4735 33.5341C31.3428 33.875 31.2775 34.2727 31.2775 34.7273ZM38.0211 40.4545C37.8307 40.4545 37.6574 40.4389 37.5012 40.4077C37.3449 40.3793 37.2284 40.348 37.1517 40.3139L37.4586 39.2699C37.6915 39.3324 37.8989 39.3594 38.0807 39.3509C38.2625 39.3423 38.4231 39.2741 38.5623 39.1463C38.7043 39.0185 38.8293 38.8097 38.9373 38.5199L39.0949 38.0852L36.7 31.4545H38.0637L39.7213 36.5341H39.7895L41.4472 31.4545H42.8151L40.1177 38.8736C39.9927 39.2145 39.8336 39.5028 39.6404 39.7386C39.4472 39.9773 39.2171 40.1563 38.95 40.2756C38.683 40.3949 38.3733 40.4545 38.0211 40.4545ZM54.5392 32.1108H53.2096C53.1585 31.8267 53.0633 31.5767 52.9241 31.3608C52.7849 31.1449 52.6145 30.9616 52.4128 30.8111C52.211 30.6605 51.9852 30.5469 51.7352 30.4702C51.488 30.3935 51.2253 30.3551 50.9468 30.3551C50.444 30.3551 49.9937 30.4815 49.596 30.7344C49.2011 30.9872 48.8886 31.358 48.6585 31.8466C48.4312 32.3352 48.3176 32.9318 48.3176 33.6364C48.3176 34.3466 48.4312 34.946 48.6585 35.4347C48.8886 35.9233 49.2025 36.2926 49.6003 36.5426C49.998 36.7926 50.4454 36.9176 50.9426 36.9176C51.2182 36.9176 51.4795 36.8807 51.7267 36.8068C51.9767 36.7301 52.2025 36.6179 52.4042 36.4702C52.6059 36.3224 52.7764 36.142 52.9156 35.929C53.0576 35.7131 53.1557 35.4659 53.2096 35.1875L54.5392 35.1918C54.4682 35.6207 54.3304 36.0156 54.1258 36.3764C53.9241 36.7344 53.6642 37.044 53.346 37.3054C53.0307 37.5639 52.6699 37.7642 52.2636 37.9062C51.8574 38.0483 51.4142 38.1193 50.9341 38.1193C50.1784 38.1193 49.5051 37.9403 48.9142 37.5824C48.3233 37.2216 47.8574 36.706 47.5164 36.0355C47.1784 35.3651 47.0093 34.5653 47.0093 33.6364C47.0093 32.7045 47.1798 31.9048 47.5207 31.2372C47.8616 30.5668 48.3275 30.0526 48.9184 29.6946C49.5093 29.3338 50.1812 29.1534 50.9341 29.1534C51.3971 29.1534 51.8289 29.2202 52.2295 29.3537C52.6329 29.4844 52.9951 29.6776 53.3162 29.9332C53.6372 30.1861 53.9028 30.4957 54.113 30.8622C54.3233 31.2259 54.4653 31.642 54.5392 32.1108ZM58.7696 38.1321C58.156 38.1321 57.6205 37.9915 57.1631 37.7102C56.7057 37.429 56.3506 37.0355 56.0978 36.5298C55.8449 36.0241 55.7185 35.4332 55.7185 34.7571C55.7185 34.0781 55.8449 33.4844 56.0978 32.9759C56.3506 32.4673 56.7057 32.0724 57.1631 31.7912C57.6205 31.5099 58.156 31.3693 58.7696 31.3693C59.3833 31.3693 59.9188 31.5099 60.3762 31.7912C60.8336 32.0724 61.1887 32.4673 61.4415 32.9759C61.6944 33.4844 61.8208 34.0781 61.8208 34.7571C61.8208 35.4332 61.6944 36.0241 61.4415 36.5298C61.1887 37.0355 60.8336 37.429 60.3762 37.7102C59.9188 37.9915 59.3833 38.1321 58.7696 38.1321ZM58.7739 37.0625C59.1716 37.0625 59.5012 36.9574 59.7625 36.7472C60.0239 36.5369 60.2171 36.2571 60.3421 35.9077C60.4699 35.5582 60.5338 35.1733 60.5338 34.7528C60.5338 34.3352 60.4699 33.9517 60.3421 33.6023C60.2171 33.25 60.0239 32.9673 59.7625 32.7543C59.5012 32.5412 59.1716 32.4347 58.7739 32.4347C58.3733 32.4347 58.0409 32.5412 57.7767 32.7543C57.5154 32.9673 57.3208 33.25 57.1929 33.6023C57.0679 33.9517 57.0054 34.3352 57.0054 34.7528C57.0054 35.1733 57.0679 35.5582 57.1929 35.9077C57.3208 36.2571 57.5154 36.5369 57.7767 36.7472C58.0409 36.9574 58.3733 37.0625 58.7739 37.0625ZM63.243 38V31.4545H64.466V32.5199H64.547C64.6833 32.1591 64.9064 31.8778 65.216 31.6761C65.5257 31.4716 65.8964 31.3693 66.3282 31.3693C66.7657 31.3693 67.1322 31.4716 67.4277 31.6761C67.726 31.8807 67.9461 32.1619 68.0882 32.5199H68.1564C68.3126 32.1705 68.5612 31.892 68.9021 31.6847C69.243 31.4744 69.6493 31.3693 70.1208 31.3693C70.7146 31.3693 71.199 31.5554 71.574 31.9276C71.9518 32.2997 72.1407 32.8608 72.1407 33.6108V38H70.8666V33.7301C70.8666 33.2869 70.7459 32.9659 70.5044 32.767C70.2629 32.5682 69.9745 32.4688 69.6393 32.4688C69.2245 32.4688 68.9021 32.5966 68.672 32.8523C68.4419 33.1051 68.3268 33.4304 68.3268 33.8281V38H67.0569V33.6491C67.0569 33.294 66.9461 33.0085 66.7245 32.7926C66.503 32.5767 66.2146 32.4688 65.8595 32.4688C65.618 32.4688 65.395 32.5327 65.1905 32.6605C64.9887 32.7855 64.8254 32.9602 64.7004 33.1847C64.5782 33.4091 64.5172 33.669 64.5172 33.9645V38H63.243ZM73.8485 38V31.4545H75.0715V32.5199H75.1525C75.2888 32.1591 75.5118 31.8778 75.8215 31.6761C76.1311 31.4716 76.5019 31.3693 76.9337 31.3693C77.3712 31.3693 77.7377 31.4716 78.0331 31.6761C78.3314 31.8807 78.5516 32.1619 78.6936 32.5199H78.7618C78.9181 32.1705 79.1667 31.892 79.5076 31.6847C79.8485 31.4744 80.2547 31.3693 80.7263 31.3693C81.3201 31.3693 81.8044 31.5554 82.1794 31.9276C82.5573 32.2997 82.7462 32.8608 82.7462 33.6108V38H81.4721V33.7301C81.4721 33.2869 81.3513 32.9659 81.1098 32.767C80.8684 32.5682 80.58 32.4688 80.2448 32.4688C79.83 32.4688 79.5076 32.5966 79.2775 32.8523C79.0473 33.1051 78.9323 33.4304 78.9323 33.8281V38H77.6624V33.6491C77.6624 33.294 77.5516 33.0085 77.33 32.7926C77.1084 32.5767 76.8201 32.4688 76.465 32.4688C76.2235 32.4688 76.0005 32.5327 75.7959 32.6605C75.5942 32.7855 75.4309 32.9602 75.3059 33.1847C75.1837 33.4091 75.1226 33.669 75.1226 33.9645V38H73.8485ZM86.3588 38.1449C85.944 38.1449 85.569 38.0682 85.2338 37.9148C84.8985 37.7585 84.6329 37.5327 84.4369 37.2372C84.2437 36.9418 84.1471 36.5795 84.1471 36.1506C84.1471 35.7812 84.2182 35.4773 84.3602 35.2386C84.5022 35 84.694 34.8111 84.9355 34.6719C85.177 34.5327 85.4468 34.4276 85.7451 34.3565C86.0434 34.2855 86.3474 34.2315 86.6571 34.1946C87.0491 34.1491 87.3673 34.1122 87.6116 34.0838C87.8559 34.0526 88.0335 34.0028 88.1443 33.9347C88.2551 33.8665 88.3105 33.7557 88.3105 33.6023V33.5724C88.3105 33.2003 88.2054 32.9119 87.9951 32.7074C87.7878 32.5028 87.4781 32.4006 87.0662 32.4006C86.6372 32.4006 86.2991 32.4957 86.052 32.6861C85.8076 32.8736 85.6386 33.0824 85.5449 33.3125L84.3474 33.0398C84.4895 32.642 84.6968 32.321 84.9696 32.0767C85.2451 31.8295 85.5619 31.6506 85.9199 31.5398C86.2778 31.4261 86.6542 31.3693 87.0491 31.3693C87.3105 31.3693 87.5875 31.4006 87.8801 31.4631C88.1755 31.5227 88.4511 31.6335 88.7068 31.7955C88.9653 31.9574 89.177 32.1889 89.3417 32.4901C89.5065 32.7884 89.5889 33.1761 89.5889 33.6534V38H88.3446V37.1051H88.2934C88.211 37.2699 88.0875 37.4318 87.9227 37.5909C87.7579 37.75 87.5463 37.8821 87.2878 37.9872C87.0292 38.0923 86.7196 38.1449 86.3588 38.1449ZM86.6358 37.1222C86.988 37.1222 87.2892 37.0526 87.5392 36.9134C87.792 36.7741 87.9838 36.5923 88.1145 36.3679C88.248 36.1406 88.3147 35.8977 88.3147 35.6392V34.7955C88.2693 34.8409 88.1812 34.8835 88.0505 34.9233C87.9227 34.9602 87.7764 34.9929 87.6116 35.0213C87.4468 35.0469 87.2863 35.071 87.1301 35.0938C86.9738 35.1136 86.8432 35.1307 86.738 35.1449C86.4909 35.1761 86.265 35.2287 86.0605 35.3026C85.8588 35.3764 85.6968 35.483 85.5747 35.6222C85.4554 35.7585 85.3957 35.9403 85.3957 36.1676C85.3957 36.483 85.5122 36.7216 85.7451 36.8835C85.9781 37.0426 86.275 37.1222 86.6358 37.1222ZM92.5601 34.1136V38H91.286V31.4545H92.509V32.5199H92.59C92.7405 32.1733 92.9763 31.8949 93.2973 31.6847C93.6212 31.4744 94.0289 31.3693 94.5204 31.3693C94.9664 31.3693 95.357 31.4631 95.6922 31.6506C96.0275 31.8352 96.2874 32.1108 96.4721 32.4773C96.6567 32.8437 96.749 33.2969 96.749 33.8366V38H95.4749V33.9901C95.4749 33.5156 95.3513 33.1449 95.1042 32.8778C94.857 32.608 94.5175 32.473 94.0857 32.473C93.7902 32.473 93.5275 32.5369 93.2973 32.6648C93.0701 32.7926 92.8897 32.9801 92.7561 33.2273C92.6255 33.4716 92.5601 33.767 92.5601 34.1136ZM100.908 38.1278C100.38 38.1278 99.9081 37.9929 99.4934 37.723C99.0814 37.4503 98.7576 37.0625 98.5218 36.5597C98.2888 36.054 98.1723 35.4474 98.1723 34.7401C98.1723 34.0327 98.2902 33.4276 98.526 32.9247C98.7647 32.4219 99.0914 32.0369 99.5061 31.7699C99.9209 31.5028 100.391 31.3693 100.917 31.3693C101.323 31.3693 101.65 31.4375 101.897 31.5739C102.147 31.7074 102.34 31.8636 102.476 32.0426C102.616 32.2216 102.723 32.3793 102.8 32.5156H102.877V29.2727H104.151V38H102.907V36.9815H102.8C102.723 37.1207 102.613 37.2798 102.468 37.4588C102.326 37.6378 102.13 37.794 101.88 37.9276C101.63 38.0611 101.306 38.1278 100.908 38.1278ZM101.189 37.0412C101.556 37.0412 101.866 36.9446 102.118 36.7514C102.374 36.5554 102.567 36.2841 102.698 35.9375C102.831 35.5909 102.898 35.1875 102.898 34.7273C102.898 34.2727 102.833 33.875 102.702 33.5341C102.571 33.1932 102.38 32.9276 102.127 32.7372C101.874 32.5469 101.562 32.4517 101.189 32.4517C100.806 32.4517 100.486 32.5511 100.231 32.75C99.9749 32.9489 99.7817 33.2202 99.651 33.5639C99.5232 33.9077 99.4593 34.2955 99.4593 34.7273C99.4593 35.1648 99.5246 35.5582 99.6553 35.9077C99.786 36.2571 99.9792 36.5341 100.235 36.7386C100.493 36.9403 100.812 37.0412 101.189 37.0412ZM106.072 38V29.2727H109.268C109.887 29.2727 110.4 29.375 110.806 29.5795C111.212 29.7812 111.516 30.0554 111.718 30.402C111.92 30.7457 112.021 31.1335 112.021 31.5653C112.021 31.929 111.954 32.2358 111.82 32.4858C111.687 32.733 111.508 32.9318 111.283 33.0824C111.062 33.2301 110.818 33.3381 110.551 33.4062V33.4915C110.84 33.5057 111.123 33.5994 111.399 33.7727C111.677 33.9432 111.907 34.1861 112.089 34.5014C112.271 34.8168 112.362 35.2003 112.362 35.652C112.362 36.098 112.257 36.4986 112.046 36.8537C111.839 37.206 111.518 37.4858 111.083 37.6932C110.649 37.8977 110.093 38 109.417 38H106.072ZM107.389 36.8707H109.289C109.92 36.8707 110.372 36.7486 110.644 36.5043C110.917 36.2599 111.053 35.9545 111.053 35.5881C111.053 35.3125 110.984 35.0597 110.845 34.8295C110.705 34.5994 110.507 34.4162 110.248 34.2798C109.992 34.1435 109.688 34.0753 109.336 34.0753H107.389V36.8707ZM107.389 33.0483H109.153C109.448 33.0483 109.714 32.9915 109.95 32.8778C110.188 32.7642 110.377 32.6051 110.516 32.4006C110.658 32.1932 110.73 31.9489 110.73 31.6676C110.73 31.3068 110.603 31.0043 110.35 30.7599C110.097 30.5156 109.71 30.3935 109.187 30.3935H107.389V33.0483ZM115.726 38.1449C115.311 38.1449 114.936 38.0682 114.601 37.9148C114.266 37.7585 114 37.5327 113.804 37.2372C113.611 36.9418 113.514 36.5795 113.514 36.1506C113.514 35.7812 113.585 35.4773 113.727 35.2386C113.869 35 114.061 34.8111 114.303 34.6719C114.544 34.5327 114.814 34.4276 115.112 34.3565C115.411 34.2855 115.715 34.2315 116.024 34.1946C116.416 34.1491 116.734 34.1122 116.979 34.0838C117.223 34.0526 117.401 34.0028 117.511 33.9347C117.622 33.8665 117.678 33.7557 117.678 33.6023V33.5724C117.678 33.2003 117.573 32.9119 117.362 32.7074C117.155 32.5028 116.845 32.4006 116.433 32.4006C116.004 32.4006 115.666 32.4957 115.419 32.6861C115.175 32.8736 115.006 33.0824 114.912 33.3125L113.715 33.0398C113.857 32.642 114.064 32.321 114.337 32.0767C114.612 31.8295 114.929 31.6506 115.287 31.5398C115.645 31.4261 116.021 31.3693 116.416 31.3693C116.678 31.3693 116.955 31.4006 117.247 31.4631C117.543 31.5227 117.818 31.6335 118.074 31.7955C118.332 31.9574 118.544 32.1889 118.709 32.4901C118.874 32.7884 118.956 33.1761 118.956 33.6534V38H117.712V37.1051H117.661C117.578 37.2699 117.455 37.4318 117.29 37.5909C117.125 37.75 116.913 37.8821 116.655 37.9872C116.396 38.0923 116.087 38.1449 115.726 38.1449ZM116.003 37.1222C116.355 37.1222 116.656 37.0526 116.906 36.9134C117.159 36.7741 117.351 36.5923 117.482 36.3679C117.615 36.1406 117.682 35.8977 117.682 35.6392V34.7955C117.636 34.8409 117.548 34.8835 117.418 34.9233C117.29 34.9602 117.144 34.9929 116.979 35.0213C116.814 35.0469 116.654 35.071 116.497 35.0938C116.341 35.1136 116.21 35.1307 116.105 35.1449C115.858 35.1761 115.632 35.2287 115.428 35.3026C115.226 35.3764 115.064 35.483 114.942 35.6222C114.823 35.7585 114.763 35.9403 114.763 36.1676C114.763 36.483 114.879 36.7216 115.112 36.8835C115.345 37.0426 115.642 37.1222 116.003 37.1222ZM120.653 38V31.4545H121.885V32.4943H121.953C122.072 32.142 122.282 31.8651 122.584 31.6634C122.888 31.4588 123.231 31.3565 123.615 31.3565C123.694 31.3565 123.788 31.3594 123.896 31.3651C124.007 31.3707 124.094 31.3778 124.156 31.3864V32.6051C124.105 32.5909 124.014 32.5753 123.883 32.5582C123.753 32.5384 123.622 32.5284 123.491 32.5284C123.19 32.5284 122.922 32.5923 122.686 32.7202C122.453 32.8452 122.268 33.0199 122.132 33.2443C121.995 33.4659 121.927 33.7187 121.927 34.0028V38H120.653Z" fill="url(#paint1_linear_20_186)"/>
<circle cx="19.0672" cy="6.76675" r="1.58892" fill="#B59BFF"/>
<circle cx="11.1224" cy="16.3003" r="1.58892" fill="#B59BFF"/>
<path d="M19.7199 9.2338L13.728 4.78821" stroke="#0EF1C4" stroke-width="2" stroke-linecap="round" stroke-linejoin="round"/>
<path d="M18.7201 8.49219L14.9838 13.5281L14.3268 21.629C14.2296 22.8286 13.4901 23.8813 12.3945 24.3795C11.299 24.8778 10.0196 24.7434 9.05151 24.0283L2.66673 19.2913C1.69754 18.5743 1.19384 17.3878 1.35124 16.1926C1.50864 14.9973 2.30235 13.9816 3.42411 13.54L10.9865 10.5624L14.7228 5.52649" stroke="#0EF1C4" stroke-width="2" stroke-linecap="round" stroke-linejoin="round"/>
<path d="M14.951 13.9537L10.5942 10.7212" stroke="#0EF1C4" stroke-width="2" stroke-linecap="round" stroke-linejoin="round"/>
<circle cx="10.7251" cy="20.6698" r="1.19169" fill="#B59BFF"/>
<circle cx="7.14993" cy="17.8892" r="0.794461" fill="#B59BFF"/>
<circle cx="18.2727" cy="2.79446" r="0.794461" fill="#B59BFF"/>
<defs>
<linearGradient id="paint0_linear_20_186" x1="137.612" y1="5.03152e-08" x2="146.33" y2="38.5203" gradientUnits="userSpaceOnUse">
<stop offset="0.0555323" stop-color="#55FFDD"/>
<stop offset="1" stop-color="#002A7A"/>
</linearGradient>
<linearGradient id="paint1_linear_20_186" x1="77.0701" y1="26" x2="77.0701" y2="41" gradientUnits="userSpaceOnUse">
<stop stop-color="#9D7AFF"/>
<stop offset="1" stop-color="#6738EC"/>
</linearGradient>
</defs>
</svg>
