<svg width="24" height="24" viewBox="0 0 24 24" fill="none" xmlns="http://www.w3.org/2000/svg">
<path d="M17.9935 6.36908C16.8646 5.8511 15.6541 5.46949 14.3884 5.25092C14.3653 5.2467 14.3423 5.25724 14.3304 5.27832C14.1747 5.55522 14.0023 5.91646 13.8815 6.20039C12.5202 5.99659 11.1658 5.99659 9.83242 6.20039C9.71163 5.91015 9.53292 5.55522 9.37654 5.27832C9.36466 5.25794 9.34164 5.2474 9.31859 5.25092C8.05359 5.46879 6.84305 5.85041 5.71349 6.36908C5.70371 6.37329 5.69533 6.38033 5.68977 6.38946C3.39363 9.81983 2.76462 13.1659 3.07319 16.4705C3.07459 16.4866 3.08366 16.5021 3.09623 16.5119C4.61116 17.6245 6.07862 18.2999 7.51883 18.7475C7.54188 18.7546 7.5663 18.7461 7.58097 18.7272C7.92165 18.2619 8.22534 17.7714 8.48573 17.2555C8.50109 17.2253 8.48642 17.1894 8.45502 17.1775C7.97332 16.9948 7.51464 16.772 7.07343 16.519C7.03853 16.4986 7.03573 16.4487 7.06784 16.4248C7.16069 16.3552 7.25356 16.2828 7.34222 16.2097C7.35826 16.1964 7.38061 16.1936 7.39947 16.202C10.2981 17.5254 13.4361 17.5254 16.3005 16.202C16.3194 16.1929 16.3417 16.1957 16.3585 16.209C16.4471 16.2821 16.54 16.3552 16.6335 16.4248C16.6656 16.4487 16.6635 16.4986 16.6286 16.519C16.1874 16.7769 15.7287 16.9948 15.2463 17.1768C15.2149 17.1887 15.201 17.2253 15.2163 17.2555C15.4823 17.7706 15.786 18.2612 16.1204 18.7265C16.1344 18.7461 16.1595 18.7546 16.1825 18.7475C17.6297 18.2999 19.0972 17.6245 20.6121 16.5119C20.6254 16.5021 20.6338 16.4873 20.6352 16.4712C21.0045 12.6507 20.0166 9.3321 18.0165 6.39016C18.0116 6.38033 18.0032 6.37329 17.9935 6.36908ZM8.91858 14.4583C8.04591 14.4583 7.32685 13.6572 7.32685 12.6732C7.32685 11.6893 8.03196 10.8881 8.91858 10.8881C9.81216 10.8881 10.5243 11.6963 10.5103 12.6732C10.5103 13.6572 9.80518 14.4583 8.91858 14.4583ZM14.8037 14.4583C13.9311 14.4583 13.212 13.6572 13.212 12.6732C13.212 11.6893 13.9171 10.8881 14.8037 10.8881C15.6973 10.8881 16.4094 11.6963 16.3955 12.6732C16.3955 13.6572 15.6973 14.4583 14.8037 14.4583Z" fill="#5865F2"/>
</svg>
