<svg width="24" height="24" viewBox="0 0 24 24" fill="none" xmlns="http://www.w3.org/2000/svg">
<path d="M3.20455 13.4006C2.73864 13.4006 2.33807 13.2358 2.00284 12.9062C1.66761 12.571 1.5 12.1676 1.5 11.696C1.5 11.2301 1.66761 10.8324 2.00284 10.5028C2.33807 10.1676 2.73864 10 3.20455 10C3.67045 10 4.07102 10.1676 4.40625 10.5028C4.74148 10.8324 4.90909 11.2301 4.90909 11.696C4.90909 12.0085 4.82955 12.2955 4.67045 12.5568C4.51705 12.8125 4.3125 13.017 4.05682 13.1705C3.80114 13.3239 3.51705 13.4006 3.20455 13.4006Z" fill="#323232"/>
<path d="M11.9214 13.4006C11.4555 13.4006 11.0549 13.2358 10.7197 12.9062C10.3845 12.571 10.2169 12.1676 10.2169 11.696C10.2169 11.2301 10.3845 10.8324 10.7197 10.5028C11.0549 10.1676 11.4555 10 11.9214 10C12.3873 10 12.7879 10.1676 13.1231 10.5028C13.4584 10.8324 13.626 11.2301 13.626 11.696C13.626 12.0085 13.5464 12.2955 13.3873 12.5568C13.2339 12.8125 13.0294 13.017 12.7737 13.1705C12.518 13.3239 12.2339 13.4006 11.9214 13.4006Z" fill="#323232"/>
<path d="M20.6383 13.4006C20.1724 13.4006 19.7718 13.2358 19.4366 12.9062C19.1014 12.571 18.9338 12.1676 18.9338 11.696C18.9338 11.2301 19.1014 10.8324 19.4366 10.5028C19.7718 10.1676 20.1724 10 20.6383 10C21.1042 10 21.5048 10.1676 21.84 10.5028C22.1752 10.8324 22.3428 11.2301 22.3428 11.696C22.3428 12.0085 22.2633 12.2955 22.1042 12.5568C21.9508 12.8125 21.7462 13.017 21.4906 13.1705C21.2349 13.3239 20.9508 13.4006 20.6383 13.4006Z" fill="#323232"/>
</svg>
