<svg width="24" height="24" viewBox="0 0 24 24" fill="none" xmlns="http://www.w3.org/2000/svg">
<g clip-path="url(#clip0_11_383)">
<path d="M19.7495 20.6667C19.7495 20.6667 17.0979 19.6232 14.9531 18.7879H5.93282C4.86576 18.7879 3.99951 17.8688 3.99951 16.7365V4.71644C3.99951 3.58525 4.86576 2.66669 5.93282 2.66669H17.8156C18.8833 2.66669 19.7489 3.58469 19.7489 4.717V15.0692H19.7495V20.6667ZM17.4213 13.9268C17.3792 13.8727 17.3263 13.828 17.266 13.7954C17.2057 13.7629 17.1392 13.7432 17.0709 13.7376C17.0026 13.7321 16.9339 13.7408 16.8691 13.7632C16.8043 13.7856 16.7449 13.8212 16.6946 13.8677C16.6777 13.8824 14.9986 15.3758 11.8739 15.3758C8.78807 15.3758 7.08314 13.8931 7.05276 13.8661C7.0024 13.8197 6.94299 13.7844 6.87827 13.7622C6.81356 13.74 6.74494 13.7314 6.67676 13.7371C6.60857 13.7427 6.5423 13.7625 6.48212 13.795C6.42195 13.8276 6.36918 13.8723 6.32714 13.9262C6.23709 14.0386 6.19307 14.1809 6.20395 14.3245C6.21346 14.4673 6.2775 14.6011 6.38282 14.698C6.4627 14.77 8.37239 16.4699 11.8739 16.4699C15.3761 16.4699 17.2858 14.77 17.3656 14.698C17.4708 14.601 17.5346 14.4673 17.5439 14.3245C17.5548 14.1812 17.511 14.0391 17.4213 13.9268V13.9268Z" fill="#1F8DED"/>
</g>
<defs>
<clipPath id="clip0_11_383">
<rect width="15.75" height="18" fill="white" transform="translate(3.99951 2.66669)"/>
</clipPath>
</defs>
</svg>
