<svg width="24" height="24" viewBox="0 0 24 24" fill="none" xmlns="http://www.w3.org/2000/svg">
<path fill-rule="evenodd" clip-rule="evenodd" d="M7.47457 7.47463C9.57403 5.37517 12.9779 5.37517 15.0774 7.47463C17.1549 9.55216 17.1766 12.907 15.1425 15.0112C15.1187 15.0306 15.0957 15.0513 15.0735 15.0735C15.0514 15.0956 15.0306 15.1187 15.0113 15.1424C12.9071 17.1767 9.55213 17.155 7.47457 15.0774C5.37511 12.978 5.37511 9.57409 7.47457 7.47463ZM15.6743 16.9471C12.8592 19.1361 8.78867 18.9371 6.20178 16.3502C3.39938 13.5478 3.39938 9.00424 6.20178 6.20184C9.00418 3.39944 13.5478 3.39944 16.3502 6.20184C18.937 8.78868 19.136 12.8592 16.9471 15.6742L19.6363 18.3635C19.9878 18.715 19.9878 19.2848 19.6363 19.6363C19.2849 19.9877 18.715 19.9877 18.3635 19.6363L15.6743 16.9471Z" fill="#323232"/>
</svg>
